<svg version="1.1" id="Layer_1" xmlns="http://www.w3.org/2000/svg" xmlns:xlink="http://www.w3.org/1999/xlink" x="0px" y="0px"
	 width="100%" viewBox="0 0 1024 1024" enable-background="new 0 0 1024 1024" xml:space="preserve">
<path fill="#212626" opacity="1.000000" stroke="none" 
	d="
M158.023590,162.755310 
	C158.023590,162.755310 157.997650,162.375153 158.252411,162.220474 
	C158.677689,162.066711 158.848190,162.067627 159.349487,162.003265 
	C160.458694,160.949814 161.237091,159.961655 162.015503,158.973495 
	C162.015503,158.973495 161.999039,159.000626 162.403259,159.018860 
	C164.204193,159.024048 165.600922,159.011017 167.323578,159.254852 
	C169.124222,159.671585 170.598923,159.971313 172.073639,159.971466 
	C398.974640,159.993103 625.875671,159.995377 852.776672,159.952377 
	C854.523926,159.952042 856.271118,159.321732 858.442261,158.967896 
	C860.563293,158.983932 862.260315,159.017609 864.118652,159.328003 
	C865.193726,160.073212 866.107605,160.541718 867.021484,161.010223 
	C867.021484,161.010223 866.999451,160.999939 867.100098,161.215378 
	C867.470154,161.618362 867.739563,161.805908 868.021729,162.293365 
	C868.362366,163.068649 868.690247,163.544037 869.018127,164.019409 
	C869.018127,164.019409 869.000183,164.000793 868.988525,164.460236 
	C869.010010,168.252518 869.072144,171.585388 869.072083,174.918243 
	C869.071106,389.231293 869.065002,603.544373 869.059387,817.857422 
	C869.059265,822.992920 869.040344,828.128479 869.064392,833.263916 
	C869.086914,838.058289 866.657532,841.299377 862.288940,842.665039 
	C859.338318,843.587341 856.096985,843.935181 852.985474,843.935974 
	C626.340271,843.997131 399.695099,843.980774 173.049942,844.098328 
	C167.214737,844.101318 162.229126,842.971130 157.991028,838.990906 
	C158.004501,839.002991 158.016678,839.037109 157.986572,838.734131 
	C157.630005,837.945312 157.303558,837.459351 156.990082,836.984009 
	C157.003036,836.994507 157.014206,837.026001 157.022247,836.555176 
	C157.016068,834.251160 156.989380,832.417908 156.989380,830.584717 
	C156.987961,613.933044 156.980270,397.281403 157.032333,180.629776 
	C157.033752,174.671539 157.678711,168.713455 158.023590,162.755310 
M385.013306,391.617065 
	C385.013306,391.617065 384.972443,391.133636 384.392944,390.533173 
	C383.089294,390.358643 381.785614,390.031525 380.481964,390.031433 
	C312.337250,390.026611 244.192551,390.049469 175.368134,390.459381 
	C174.916870,391.984406 174.072449,393.509003 174.070938,395.034485 
	C174.005646,460.942688 173.999847,526.850952 174.099045,592.759094 
	C174.101654,594.500427 175.345123,596.239868 176.944855,598.011780 
	C244.402878,598.012756 311.860901,598.022278 379.318909,597.970520 
	C381.221558,597.969055 383.123718,597.313904 385.555176,596.334045 
	C385.700470,594.858093 385.972351,593.382141 385.972870,591.906128 
	C385.995453,526.893616 385.999939,461.881134 385.961182,396.868683 
	C385.960205,395.270660 385.447235,393.673004 385.013306,391.617065 
M385.626038,370.260773 
	C385.749725,369.278137 385.981659,368.295532 385.981659,367.312897 
	C385.981903,303.887817 385.963287,240.462723 385.744873,176.504990 
	C385.490906,175.995361 385.236938,175.485748 384.333435,174.468384 
	C383.026184,174.313675 381.718933,174.024048 380.411652,174.023605 
	C313.883087,174.001587 247.354538,173.997665 180.826004,174.043655 
	C179.243500,174.044739 177.661407,174.634109 175.620468,175.342087 
	C175.434723,175.903427 175.248978,176.464783 174.530640,177.004562 
	C174.352982,177.003723 174.175308,177.002869 173.477066,177.648193 
	C173.318069,178.955078 173.020447,180.261917 173.019974,181.568848 
	C172.997208,243.474716 172.992599,305.380585 173.043655,367.286407 
	C173.044952,368.859131 173.690811,370.431335 174.540878,372.221466 
	C175.037094,372.451935 175.533310,372.682404 176.960403,372.955475 
	C244.590988,372.962799 312.221588,372.979218 379.852142,372.925018 
	C381.544312,372.923676 383.235870,372.142365 384.903625,371.279083 
	C384.903625,371.279083 385.115601,370.886292 385.626038,370.260773 
M851.445435,596.431580 
	C851.629395,595.131042 851.973816,593.830505 851.974365,592.529907 
	C852.000122,526.886108 852.004395,461.242371 851.946838,395.598633 
	C851.945496,394.051636 851.214233,392.505280 851.025085,390.978363 
	C851.025085,390.978363 851.041748,391.180267 850.444763,390.575043 
	C849.146851,390.384064 847.848938,390.026520 846.550964,390.026001 
	C779.592651,389.999054 712.634277,389.994812 645.676025,390.050293 
	C644.131104,390.051575 642.586792,390.763062 641.013428,391.620880 
	C641.013428,391.620880 640.833313,392.064209 640.093262,392.293610 
	C639.737122,393.667633 639.070496,395.041412 639.069458,396.415680 
	C639.019897,461.861481 639.012512,527.307312 639.112183,592.753052 
	C639.114807,594.494629 640.348572,596.234314 641.943176,598.018372 
	C709.762390,598.030212 777.581665,598.051880 845.400818,598.002869 
	C847.274048,598.001526 849.146667,597.241272 851.011719,597.011475 
	C851.011719,597.011475 850.835327,597.021851 851.445435,596.431580 
M621.533569,371.319061 
	C621.693665,370.014526 621.993408,368.710052 621.993774,367.405487 
	C622.012268,305.539154 622.011902,243.672836 621.960632,181.806519 
	C621.959351,180.231049 621.365723,178.656067 620.800110,176.311203 
	C619.295410,175.879425 617.791016,175.071304 616.285889,175.069962 
	C547.359680,175.008240 478.433380,175.004639 409.507263,175.098145 
	C407.984253,175.100204 406.462921,176.303864 404.198761,177.232224 
	C403.801910,178.588226 403.059265,179.943909 403.057983,181.300278 
	C402.999512,243.395767 402.991425,305.491333 403.092224,367.586700 
	C403.094604,369.053772 404.402252,370.518738 405.683624,372.559052 
	C406.992676,372.706451 408.301666,372.982361 409.610748,372.982758 
	C478.505737,373.002686 547.400696,373.006592 616.295654,372.951874 
	C617.844482,372.950653 619.392822,372.255646 621.533569,371.319061 
M620.997192,617.017029 
	C620.997192,617.017029 621.002075,616.978577 620.726807,616.236511 
	C618.880127,615.826050 617.033813,615.058411 615.186768,615.056702 
	C546.898865,614.994629 478.610962,615.002197 410.323029,615.011536 
	C409.020203,615.011719 407.717407,615.147156 406.414581,615.219482 
	C406.506317,615.464539 406.563019,615.732849 406.703918,615.945374 
	C406.779358,616.059143 406.999664,616.076965 406.531982,616.627747 
	C406.014862,618.422180 405.047424,620.216125 405.045563,622.011108 
	C404.974884,689.741699 404.993103,757.472351 405.310760,825.899719 
	C406.682922,826.264099 408.054871,826.946167 409.427338,826.947205 
	C478.452148,826.998779 547.476990,827.004761 616.501709,826.908630 
	C618.002014,826.906555 619.500610,825.663940 621.006653,824.991455 
	C621.006653,824.991455 621.020325,824.992188 621.538635,824.346924 
	C621.693481,822.872620 621.983215,821.398376 621.983704,819.924011 
	C622.005981,754.035156 622.010376,688.146362 621.962341,622.257507 
	C621.961060,620.508789 621.358032,618.760498 620.997192,617.017029 
M641.956116,372.987244 
	C709.672058,372.991760 777.387939,373.009460 845.103821,372.935059 
	C847.068420,372.932892 849.031921,371.955902 850.868774,371.192078 
	C850.868774,371.192078 851.033264,370.974365 851.568542,370.345001 
	C851.710022,369.199890 851.974976,368.054810 851.975342,366.909668 
	C851.994751,305.158142 851.999756,243.406601 851.945679,181.655106 
	C851.944336,180.094421 851.266907,178.534332 851.013000,177.057556 
	C851.013000,177.057556 850.931519,177.167358 850.746216,176.376282 
	C849.260864,175.923187 847.775818,175.075195 846.290039,175.073761 
	C779.348511,175.009430 712.406921,175.006256 645.465454,175.106018 
	C643.988342,175.108231 642.513123,176.385284 641.002869,177.004257 
	C641.002869,177.004257 641.066895,177.037231 640.293213,177.245361 
	C639.864624,178.749283 639.062744,180.252823 639.061218,181.757172 
	C638.998474,243.751740 638.991211,305.746429 639.092163,367.740936 
	C639.094971,369.480499 640.351807,371.218018 641.956116,372.987244 
M405.622772,597.536316 
	C407.095825,597.692627 408.568848,597.985229 410.041962,597.985779 
	C478.410614,598.010254 546.779236,598.015015 615.147888,597.975281 
	C616.740784,597.974304 618.333496,597.437927 620.471436,596.912842 
	C620.687927,596.590820 620.904480,596.268738 621.628967,595.301758 
	C621.758118,593.988586 621.999878,592.675476 622.000183,591.362305 
	C622.015015,526.516113 622.015442,461.669952 621.968689,396.823792 
	C621.967590,395.235779 621.418091,393.648163 620.960022,391.673248 
	C620.960022,391.673248 620.968872,391.252808 620.412170,390.624298 
	C618.786743,390.419220 617.161316,390.035553 615.535828,390.034851 
	C547.076965,390.005371 478.618103,390.002106 410.159271,390.056000 
	C408.432343,390.057343 406.705963,390.734100 405.037994,390.990814 
	C405.037994,390.990814 405.142487,391.050354 404.358429,391.259674 
	C403.906433,393.244324 403.063324,395.228302 403.059967,397.213715 
	C402.986450,440.512299 403.006470,483.811035 403.008270,527.109741 
	C403.009155,548.592529 402.960052,570.075684 403.099518,591.557556 
	C403.111237,593.366333 404.385864,595.166931 405.042755,597.007019 
	C405.042755,597.007019 405.011108,596.971924 405.622772,597.536316 
M385.535797,824.352600 
	C385.690765,823.045044 385.980865,821.737549 385.981293,820.429932 
	C386.002716,754.228882 386.005981,688.027893 385.959808,621.826843 
	C385.958679,620.243713 385.374969,618.660950 384.999268,616.670288 
	C384.999268,616.670288 385.008270,616.257629 384.434265,615.618835 
	C382.973724,615.414307 381.513275,615.031433 380.052643,615.030762 
	C313.733704,615.000000 247.414719,614.993469 181.095825,615.053406 
	C179.393860,615.054932 177.692581,615.828125 175.982346,616.646179 
	C175.982346,616.646179 175.890564,617.040344 175.159943,617.294617 
	C174.773849,618.656067 174.051102,620.017212 174.049973,621.379028 
	C173.994781,687.734558 173.988953,754.090149 174.081863,820.445618 
	C174.084000,821.969299 175.279694,823.491211 176.008087,825.079590 
	C176.008087,825.079590 175.996140,825.189819 176.307938,825.887695 
	C177.677658,826.255920 179.047134,826.945129 180.417145,826.946228 
	C247.114395,826.998779 313.811707,827.005188 380.508850,826.907898 
	C382.005890,826.905701 383.501099,825.650635 384.999634,824.997681 
	C384.999634,824.997681 385.011627,824.994263 385.535797,824.352600 
M641.021606,825.065491 
	C641.021606,825.065491 640.994507,825.131836 641.293762,825.844910 
	C642.655579,826.227966 644.017090,826.945068 645.379272,826.946167 
	C712.428589,827.001587 779.477966,827.008728 846.527222,826.911255 
	C848.016968,826.909119 849.504822,825.638733 851.016907,824.994751 
	C851.016907,824.994751 850.976990,825.007446 851.511902,824.367493 
	C851.675049,822.728516 851.980286,821.089661 851.980896,819.450623 
	C852.004456,753.706848 852.008362,687.963013 851.957397,622.219299 
	C851.956055,620.478638 851.320129,618.738525 850.315125,616.938965 
	C849.484253,616.681274 848.653381,616.423645 848.340088,615.954285 
	C848.416199,615.699585 848.504578,615.446960 848.548645,615.186890 
	C848.552917,615.162048 848.281799,615.050354 848.136780,615.046753 
	C847.138672,615.021606 846.140076,615.003113 845.141663,615.003113 
	C778.707581,615.002441 712.273499,615.002686 645.839417,615.013611 
	C644.701843,615.013794 643.564331,615.144592 642.426758,615.214417 
	C642.514709,615.460388 642.567078,615.729309 642.704895,615.943115 
	C642.778503,616.057251 642.999695,616.076294 642.668823,616.503418 
	C642.083801,616.663879 641.498718,616.824402 640.182495,617.266846 
	C639.788574,618.626465 639.051147,619.985779 639.049988,621.345825 
	C638.993591,687.728760 638.987427,754.111755 639.083435,820.494629 
	C639.085632,821.997925 640.326111,823.499390 641.021606,825.065491 
z"/>
<path fill="#050605" opacity="1.000000" stroke="none" 
	d="
M860.852417,156.881088 
	C861.377197,157.161545 861.901978,157.441986 862.706787,157.820465 
	C862.986755,157.918488 863.467285,157.984924 863.749023,158.224060 
	C864.030701,158.463181 864.082642,158.916672 864.051025,158.950012 
	C864.019348,158.983368 863.957397,159.051300 863.957397,159.051300 
	C862.260315,159.017609 860.563293,158.983932 857.971497,158.962341 
	C809.772156,158.978210 762.467529,158.984085 715.162903,158.985382 
	C532.441162,158.990372 349.719391,158.993896 166.997650,158.997971 
	C165.600922,159.011017 164.204193,159.024048 162.387497,159.024017 
	C163.131683,158.357178 164.295837,157.703400 166.249725,156.987717 
	C296.671356,156.942581 426.303284,156.976395 555.935181,156.970673 
	C657.574280,156.966202 759.213318,156.912766 860.852417,156.881088 
z"/>
<path fill="#F7EF79" opacity="1.000000" stroke="none" 
	d="
M640.833313,392.064209 
	C640.833313,392.064209 641.013428,391.620880 641.490845,391.332092 
	C663.093018,391.049255 684.217773,391.047546 705.342529,391.062714 
	C753.908936,391.097534 802.475342,391.140564 851.041748,391.180267 
	C851.041748,391.180267 851.025085,390.978363 851.002136,391.439758 
	C850.976440,427.005066 850.990234,462.109009 850.966125,497.212952 
	C850.943237,530.482605 850.880554,563.752197 850.835327,597.021851 
	C850.835327,597.021851 851.011719,597.011475 850.546997,597.008179 
	C780.403687,596.988525 710.725159,596.972046 641.006165,596.491272 
	C640.969482,559.865479 640.993103,523.704041 640.971130,487.542633 
	C640.951721,455.716492 640.881226,423.890350 640.833313,392.064209 
M728.500000,393.007874 
	C699.787537,393.007874 671.075134,393.007874 642.034424,393.007874 
	C642.034424,395.862061 642.034424,397.343170 642.034424,398.824280 
	C642.033813,462.129730 642.095093,525.435364 641.916931,588.740295 
	C641.902466,593.892395 643.410706,595.121948 648.398560,595.109619 
	C713.202942,594.948730 778.007996,594.958618 842.812439,595.096680 
	C847.472595,595.106567 849.112000,594.040894 849.098938,589.061890 
	C848.936279,527.089600 849.002136,465.116791 848.956360,403.144135 
	C848.954712,400.843628 848.269287,398.550385 848.158691,396.241516 
	C848.010376,393.143890 846.127869,392.958954 843.706848,393.065887 
	C835.807007,393.414703 827.900940,393.919800 820.000061,393.873779 
	C808.323975,393.805756 796.651672,393.141083 784.975281,393.046234 
	C766.484619,392.896057 747.991882,393.007202 728.500000,393.007874 
z"/>
<path fill="#71CA6A" opacity="1.000000" stroke="none" 
	d="
M621.120972,595.946655 
	C620.904480,596.268738 620.687927,596.590820 619.736938,596.988281 
	C613.169312,597.048340 607.336304,597.021057 601.503235,597.019470 
	C536.005859,597.001343 470.508484,596.987183 405.011108,596.971924 
	C405.011108,596.971924 405.042755,597.007019 404.951355,596.532837 
	C404.880066,551.824158 404.879120,507.589661 404.928680,463.355194 
	C404.955688,439.253540 405.068420,415.151978 405.142487,391.050354 
	C405.142487,391.050354 405.037994,390.990814 405.480713,391.022400 
	C444.345551,391.072113 482.767639,391.077728 521.189758,391.112213 
	C554.449463,391.142059 587.709167,391.204681 620.968872,391.252808 
	C620.968872,391.252808 620.960022,391.673248 621.000244,392.330048 
	C621.025024,424.148193 620.986267,455.309570 621.000244,486.470917 
	C621.016541,522.962830 621.078674,559.454712 621.120972,595.946655 
M406.045898,475.500000 
	C406.048218,512.995300 406.049011,550.490540 406.054138,587.985840 
	C406.055084,595.073608 406.063019,595.073853 413.070129,595.073730 
	C479.061798,595.072876 545.053467,595.071777 611.045105,595.070862 
	C613.631958,595.070801 616.218811,595.070923 618.820251,595.070923 
	C618.936646,593.905212 619.059448,593.249390 619.059570,592.593567 
	C619.071350,527.601807 619.034668,462.609924 619.161926,397.618378 
	C619.170715,393.115112 616.934753,392.942749 613.575867,392.944794 
	C546.251038,392.985718 478.926178,393.008301 411.601593,392.880280 
	C407.232819,392.871979 405.912079,394.074585 405.947357,398.510376 
	C406.148865,423.838928 406.045502,449.169861 406.045898,475.500000 
z"/>
<path fill="#4A5152" opacity="1.000000" stroke="none" 
	d="
M404.999359,825.203003 
	C404.993103,757.472351 404.974884,689.741699 405.045563,622.011108 
	C405.047424,620.216125 406.014862,618.422180 407.296906,616.384644 
	C447.228333,616.141296 486.395233,616.033997 525.561218,616.174255 
	C557.375427,616.288147 589.188477,616.699280 621.002075,616.978577 
	C621.002075,616.978577 620.997192,617.017029 621.013428,617.481689 
	C621.026611,686.961609 621.023499,755.976868 621.020325,824.992188 
	C621.020325,824.992188 621.006653,824.991455 620.538574,825.064270 
	C548.380188,825.159058 476.689758,825.181030 404.999359,825.203003 
M572.500000,618.002441 
	C519.006226,618.002014 465.512329,618.041077 412.018799,617.926636 
	C407.716003,617.917419 405.892578,618.719116 405.904968,623.634460 
	C406.068817,688.626526 406.044006,753.619202 405.939575,818.611511 
	C405.933075,822.669800 407.035767,824.082825 411.263763,824.075745 
	C478.755798,823.962952 546.248169,823.963562 613.740173,824.076477 
	C617.957764,824.083557 619.084167,822.687500 619.077576,818.619324 
	C618.972290,753.627014 618.964417,688.634399 619.083313,623.642151 
	C619.091187,619.336731 617.995361,617.814331 613.493347,617.906799 
	C600.167175,618.180664 586.831787,618.003357 572.500000,618.002441 
z"/>
<path fill="#4A5152" opacity="1.000000" stroke="none" 
	d="
M847.822510,616.166016 
	C848.653381,616.423645 849.484253,616.681274 850.648010,617.437439 
	C850.979614,686.959778 850.978271,755.983582 850.976990,825.007446 
	C850.976990,825.007446 851.016907,824.994751 850.541382,825.050354 
	C780.375366,825.114563 710.684937,825.123230 640.994507,825.131836 
	C640.994507,825.131836 641.021606,825.065491 641.004639,824.564758 
	C640.962952,755.037659 640.938293,686.011230 640.913696,616.984863 
	C641.498718,616.824402 642.083801,616.663879 643.364929,616.322632 
	C711.981506,616.149902 779.902039,616.157959 847.822510,616.166016 
M849.001282,812.477051 
	C849.000000,749.815735 849.000061,687.154419 848.995789,624.493103 
	C848.995361,618.014343 848.983643,618.004272 842.351135,618.004028 
	C777.856628,618.001404 713.362183,618.001648 648.867676,618.003784 
	C642.018860,618.003967 642.007629,618.012024 642.007385,624.781799 
	C642.005005,688.942993 642.005798,753.104126 642.008850,817.265320 
	C642.009155,823.988770 642.018616,823.997803 648.911682,823.997986 
	C712.072937,823.999756 775.234192,823.997864 838.395447,823.997925 
	C849.001038,823.997925 849.001038,823.999939 849.001282,812.477051 
z"/>
<path fill="#71CA6A" opacity="1.000000" stroke="none" 
	d="
M851.033264,370.974365 
	C851.033264,370.974365 850.868774,371.192078 850.482727,371.473755 
	C780.420654,371.778442 710.744690,371.801453 641.028442,371.368286 
	C641.014465,306.287170 641.040649,241.662201 641.066895,177.037231 
	C641.066895,177.037231 641.002869,177.004257 641.482666,176.979599 
	C687.959778,176.951752 733.956970,176.924057 779.954224,176.955536 
	C803.613403,176.971725 827.272400,177.093369 850.931519,177.167358 
	C850.931519,177.167358 851.013000,177.057556 850.981812,177.488510 
	C850.935181,192.220032 850.898438,206.520630 850.907898,220.821182 
	C850.941040,270.872253 850.990173,320.923309 851.033264,370.974365 
M849.032166,304.500000 
	C849.027832,264.187714 848.958435,223.875183 849.111755,183.563492 
	C849.128540,179.153824 847.864624,177.934525 843.468445,177.943375 
	C778.169312,178.074829 712.869873,178.073196 647.570740,177.938797 
	C643.179932,177.929764 641.925720,179.134842 641.936096,183.550735 
	C642.077148,243.852371 642.079895,304.154541 641.947693,364.456177 
	C641.938049,368.845459 643.148560,370.105103 647.563232,370.095886 
	C712.862366,369.959656 778.161804,369.957794 843.460938,370.083588 
	C847.833130,370.092010 849.175354,368.903564 849.125061,364.468201 
	C848.902161,344.814301 849.030884,325.156433 849.032166,304.500000 
z"/>
<path fill="#4A5152" opacity="1.000000" stroke="none" 
	d="
M175.890564,617.040344 
	C175.890564,617.040344 175.982346,616.646179 176.213852,616.396118 
	C176.445358,616.145996 176.903244,616.079346 177.034164,616.204712 
	C177.486008,616.257202 177.806915,616.184326 178.588257,616.126770 
	C185.534561,616.140015 192.020447,616.132446 198.506348,616.136536 
	C260.673645,616.175781 322.840973,616.216980 385.008270,616.257629 
	C385.008270,616.257629 384.999268,616.670288 385.002625,617.100403 
	C385.005981,617.530518 384.918793,617.979614 384.457031,617.990479 
	C317.372314,618.001648 250.749313,618.001709 184.126312,618.002930 
	C177.022614,618.003113 177.016815,618.006409 177.016556,625.017822 
	C177.014252,688.975891 177.013474,752.933960 177.014221,816.892029 
	C177.014313,823.993286 177.020050,823.996704 184.033844,823.997742 
	C250.989883,824.007324 317.945923,824.015625 384.940674,824.265503 
	C384.979431,824.506714 385.011627,824.994263 385.011627,824.994263 
	C385.011627,824.994263 384.999634,824.997681 384.533844,825.057617 
	C314.710754,825.141602 245.353439,825.165710 175.996140,825.189819 
	C175.996140,825.189819 176.008087,825.079590 175.965591,824.576904 
	C175.912262,755.062988 175.901413,686.051636 175.890564,617.040344 
z"/>
<path fill="#303332" opacity="1.000000" stroke="none" 
	d="
M167.323578,159.254852 
	C349.719391,158.993896 532.441162,158.990372 715.162903,158.985382 
	C762.467529,158.984085 809.772156,158.978210 857.547546,158.979996 
	C856.271118,159.321732 854.523926,159.952042 852.776672,159.952377 
	C625.875671,159.995377 398.974640,159.993103 172.073639,159.971466 
	C170.598923,159.971313 169.124222,159.671585 167.323578,159.254852 
z"/>
<path fill="#121413" opacity="1.000000" stroke="none" 
	d="
M405.155060,825.551392 
	C476.689758,825.181030 548.380188,825.159058 620.535278,825.068542 
	C619.500610,825.663940 618.002014,826.906555 616.501709,826.908630 
	C547.476990,827.004761 478.452148,826.998779 409.427338,826.947205 
	C408.054871,826.946167 406.682922,826.264099 405.155060,825.551392 
z"/>
<path fill="#0F1110" opacity="1.000000" stroke="none" 
	d="
M404.940796,176.947006 
	C406.462921,176.303864 407.984253,175.100204 409.507263,175.098145 
	C478.433380,175.004639 547.359680,175.008240 616.285889,175.069962 
	C617.791016,175.071304 619.295410,175.879425 620.905884,176.684540 
	C621.011719,177.057877 620.989197,177.020935 620.522583,176.979523 
	C548.366760,176.954651 476.677429,176.971207 404.976562,176.977356 
	C404.964966,176.966949 404.940796,176.947006 404.940796,176.947006 
z"/>
<path fill="#0F1110" opacity="1.000000" stroke="none" 
	d="
M175.063232,177.026123 
	C175.248978,176.464783 175.434723,175.903427 176.309204,175.154770 
	C246.326279,174.970352 315.654633,174.973251 384.982971,174.976135 
	C385.236938,175.485748 385.490906,175.995361 385.595215,176.777451 
	C385.278229,177.055023 385.110962,177.060150 384.478638,177.025864 
	C314.656830,177.006027 245.300095,177.025589 175.723297,177.042236 
	C175.503220,177.039307 175.063232,177.026123 175.063232,177.026123 
z"/>
<path fill="#121413" opacity="1.000000" stroke="none" 
	d="
M641.144165,825.488403 
	C710.684937,825.123230 780.375366,825.114563 850.529663,825.032959 
	C849.504822,825.638733 848.016968,826.909119 846.527222,826.911255 
	C779.477966,827.008728 712.428589,827.001587 645.379272,826.946167 
	C644.017090,826.945068 642.655579,826.227966 641.144165,825.488403 
z"/>
<path fill="#0F1110" opacity="1.000000" stroke="none" 
	d="
M850.838867,176.771820 
	C827.272400,177.093369 803.613403,176.971725 779.954224,176.955536 
	C733.956970,176.924057 687.959778,176.951752 641.499756,177.011292 
	C642.513123,176.385284 643.988342,175.108231 645.465454,175.106018 
	C712.406921,175.006256 779.348511,175.009430 846.290039,175.073761 
	C847.775818,175.075195 849.260864,175.923187 850.838867,176.771820 
z"/>
<path fill="#121413" opacity="1.000000" stroke="none" 
	d="
M176.152039,825.538696 
	C245.353439,825.165710 314.710754,825.141602 384.532593,825.048706 
	C383.501099,825.650635 382.005890,826.905701 380.508850,826.907898 
	C313.811707,827.005188 247.114395,826.998779 180.417145,826.946228 
	C179.047134,826.945129 177.677658,826.255920 176.152039,825.538696 
z"/>
<path fill="#202420" opacity="1.000000" stroke="none" 
	d="
M640.548096,617.125854 
	C640.938293,686.011230 640.962952,755.037659 640.988281,824.532837 
	C640.326111,823.499390 639.085632,821.997925 639.083435,820.494629 
	C638.987427,754.111755 638.993591,687.728760 639.049988,621.345825 
	C639.051147,619.985779 639.788574,618.626465 640.548096,617.125854 
z"/>
<path fill="#191C1A" opacity="1.000000" stroke="none" 
	d="
M175.525253,617.167480 
	C175.901413,686.051636 175.912262,755.062988 175.920868,824.544128 
	C175.279694,823.491211 174.084000,821.969299 174.081863,820.445618 
	C173.988953,754.090149 173.994781,687.734558 174.049973,621.379028 
	C174.051102,620.017212 174.773849,618.656067 175.525253,617.167480 
z"/>
<path fill="#0F1110" opacity="1.000000" stroke="none" 
	d="
M176.009933,597.980225 
	C175.345123,596.239868 174.101654,594.500427 174.099045,592.759094 
	C173.999847,526.850952 174.005646,460.942688 174.070938,395.034485 
	C174.072449,393.509003 174.916870,391.984406 175.705353,390.518250 
	C176.041443,390.746857 176.040283,390.916534 175.997864,391.548157 
	C175.977478,460.335052 175.998337,528.659973 176.015900,597.233765 
	C176.012589,597.482544 176.009933,597.980225 176.009933,597.980225 
z"/>
<path fill="#0F1110" opacity="1.000000" stroke="none" 
	d="
M404.750458,391.155029 
	C405.068420,415.151978 404.955688,439.253540 404.928680,463.355194 
	C404.879120,507.589661 404.880066,551.824158 404.966858,596.515015 
	C404.385864,595.166931 403.111237,593.366333 403.099518,591.557556 
	C402.960052,570.075684 403.009155,548.592529 403.008270,527.109741 
	C403.006470,483.811035 402.986450,440.512299 403.059967,397.213715 
	C403.063324,395.228302 403.906433,393.244324 404.750458,391.155029 
z"/>
<path fill="#080909" opacity="1.000000" stroke="none" 
	d="
M640.463257,392.178894 
	C640.881226,423.890350 640.951721,455.716492 640.971130,487.542633 
	C640.993103,523.704041 640.969482,559.865479 640.994385,596.745850 
	C641.018066,597.634827 641.013184,597.804871 641.008240,597.974915 
	C640.348572,596.234314 639.114807,594.494629 639.112183,592.753052 
	C639.012512,527.307312 639.019897,461.861481 639.069458,396.415680 
	C639.070496,395.041412 639.737122,393.667633 640.463257,392.178894 
z"/>
<path fill="#0F1110" opacity="1.000000" stroke="none" 
	d="
M640.680054,177.141296 
	C641.040649,241.662201 641.014465,306.287170 641.015625,371.651184 
	C641.036621,372.579010 641.030273,372.767761 641.023926,372.956482 
	C640.351807,371.218018 639.094971,369.480499 639.092163,367.740936 
	C638.991211,305.746429 638.998474,243.751740 639.061218,181.757172 
	C639.062744,180.252823 639.864624,178.749283 640.680054,177.141296 
z"/>
<path fill="#080909" opacity="1.000000" stroke="none" 
	d="
M174.796936,177.015350 
	C175.063232,177.026123 175.503220,177.039307 175.708160,177.505463 
	C175.925659,180.970154 175.947601,183.968689 175.949341,186.967239 
	C175.985275,248.607468 176.018906,310.247681 176.047379,372.144165 
	C176.037689,372.571198 176.033600,372.742035 176.029526,372.912872 
	C175.533310,372.682404 175.037094,372.451935 174.276978,371.643494 
	C174.007935,306.377686 174.002777,241.689865 173.997635,177.002029 
	C174.175308,177.002869 174.352982,177.003723 174.796936,177.015350 
z"/>
<path fill="#0F1110" opacity="1.000000" stroke="none" 
	d="
M405.101044,371.984680 
	C404.402252,370.518738 403.094604,369.053772 403.092224,367.586700 
	C402.991425,305.491333 402.999512,243.395767 403.057983,181.300278 
	C403.059265,179.943909 403.801910,178.588226 404.569763,177.089615 
	C404.940796,176.947006 404.964966,176.966949 404.923401,177.444336 
	C404.899200,201.862183 404.912659,225.802673 404.934784,249.743149 
	C404.972443,290.471222 405.015625,331.199280 405.072479,371.937988 
	C405.088501,371.948669 405.101044,371.984680 405.101044,371.984680 
z"/>
<path fill="#121413" opacity="1.000000" stroke="none" 
	d="
M620.864441,616.607544 
	C589.188477,616.699280 557.375427,616.288147 525.561218,616.174255 
	C486.395233,616.033997 447.228333,616.141296 407.608215,616.139832 
	C406.999664,616.076965 406.779358,616.059143 406.703918,615.945374 
	C406.563019,615.732849 406.506317,615.464539 406.414581,615.219482 
	C407.717407,615.147156 409.020203,615.011719 410.323029,615.011536 
	C478.610962,615.002197 546.898865,614.994629 615.186768,615.056702 
	C617.033813,615.058411 618.880127,615.826050 620.864441,616.607544 
z"/>
<path fill="#050605" opacity="1.000000" stroke="none" 
	d="
M620.941345,371.884247 
	C619.392822,372.255646 617.844482,372.950653 616.295654,372.951874 
	C547.400696,373.006592 478.505737,373.002686 409.610748,372.982758 
	C408.301666,372.982361 406.992676,372.706451 405.392334,372.271851 
	C405.101044,371.984680 405.088501,371.948669 405.423828,371.923859 
	C477.468048,371.896088 549.177002,371.893097 620.899780,371.888062 
	C620.913574,371.886017 620.941345,371.884247 620.941345,371.884247 
z"/>
<path fill="#000100" opacity="1.000000" stroke="none" 
	d="
M620.690552,390.938538 
	C587.709167,391.204681 554.449463,391.142059 521.189758,391.112213 
	C482.767639,391.077728 444.345551,391.072113 405.451355,391.074890 
	C406.705963,390.734100 408.432343,390.057343 410.159271,390.056000 
	C478.618103,390.002106 547.076965,390.005371 615.535828,390.034851 
	C617.161316,390.035553 618.786743,390.419220 620.690552,390.938538 
z"/>
<path fill="#121413" opacity="1.000000" stroke="none" 
	d="
M384.721252,615.938232 
	C322.840973,616.216980 260.673645,616.175781 198.506348,616.136536 
	C192.020447,616.132446 185.534561,616.140015 178.282196,616.097717 
	C177.311584,616.062012 177.107422,616.070679 176.903244,616.079346 
	C176.903244,616.079346 176.445358,616.145996 176.218170,616.193726 
	C177.692581,615.828125 179.393860,615.054932 181.095825,615.053406 
	C247.414719,614.993469 313.733704,615.000000 380.052643,615.030762 
	C381.513275,615.031433 382.973724,615.414307 384.721252,615.938232 
z"/>
<path fill="#000100" opacity="1.000000" stroke="none" 
	d="
M405.316956,597.254150 
	C470.508484,596.987183 536.005859,597.001343 601.503235,597.019470 
	C607.336304,597.021057 613.169312,597.048340 619.464355,597.107483 
	C618.333496,597.437927 616.740784,597.974304 615.147888,597.975281 
	C546.779236,598.015015 478.410614,598.010254 410.041962,597.985779 
	C408.568848,597.985229 407.095825,597.692627 405.316956,597.254150 
z"/>
<path fill="#121413" opacity="1.000000" stroke="none" 
	d="
M848.081299,616.060181 
	C779.902039,616.157959 711.981506,616.149902 643.607666,616.140076 
	C642.999695,616.076294 642.778503,616.057251 642.704895,615.943115 
	C642.567078,615.729309 642.514709,615.460388 642.426758,615.214417 
	C643.564331,615.144592 644.701843,615.013794 645.839417,615.013611 
	C712.273499,615.002686 778.707581,615.002441 845.141663,615.003113 
	C846.140076,615.003113 847.138672,615.021606 848.136780,615.046753 
	C848.281799,615.050354 848.552917,615.162048 848.548645,615.186890 
	C848.504578,615.446960 848.416199,615.699585 848.081299,616.060181 
z"/>
<path fill="#000100" opacity="1.000000" stroke="none" 
	d="
M176.039124,391.086243 
	C176.040283,390.916534 176.041443,390.746857 176.045212,390.323303 
	C244.192551,390.049469 312.337250,390.026611 380.481964,390.031433 
	C381.785614,390.031525 383.089294,390.358643 384.428467,390.787170 
	C384.298859,391.090424 384.133728,391.139740 383.503723,391.146606 
	C314.038971,391.098206 245.039047,391.092224 176.039124,391.086243 
z"/>
<path fill="#000100" opacity="1.000000" stroke="none" 
	d="
M850.743286,390.877655 
	C802.475342,391.140564 753.908936,391.097534 705.342529,391.062714 
	C684.217773,391.047546 663.093018,391.049255 641.505249,391.093262 
	C642.586792,390.763062 644.131104,390.051575 645.676025,390.050293 
	C712.634277,389.994812 779.592651,389.999054 846.550964,390.026001 
	C847.848938,390.026520 849.146851,390.384064 850.743286,390.877655 
z"/>
<path fill="#000100" opacity="1.000000" stroke="none" 
	d="
M641.475708,597.996643 
	C641.013184,597.804871 641.018066,597.634827 641.034790,597.210205 
	C710.725159,596.972046 780.403687,596.988525 850.550903,596.919922 
	C849.146667,597.241272 847.274048,598.001526 845.400818,598.002869 
	C777.581665,598.051880 709.762390,598.030212 641.475708,597.996643 
z"/>
<path fill="#050605" opacity="1.000000" stroke="none" 
	d="
M641.489990,372.971863 
	C641.030273,372.767761 641.036621,372.579010 641.055847,372.107330 
	C710.744690,371.801453 780.420654,371.778442 850.546326,371.594452 
	C849.031921,371.955902 847.068420,372.932892 845.103821,372.935059 
	C777.387939,373.009460 709.672058,372.991760 641.489990,372.971863 
z"/>
<path fill="#000100" opacity="1.000000" stroke="none" 
	d="
M176.494965,372.934174 
	C176.033600,372.742035 176.037689,372.571198 176.301636,372.165314 
	C176.719162,371.866119 176.876816,371.802032 177.496582,371.805115 
	C212.789490,371.876862 247.620285,371.904114 282.451050,371.879517 
	C316.609955,371.855408 350.768829,371.778534 384.927704,371.724792 
	C383.235870,372.142365 381.544312,372.923676 379.852142,372.925018 
	C312.221588,372.979218 244.590988,372.962799 176.494965,372.934174 
z"/>
<path fill="#33332A" opacity="1.000000" stroke="none" 
	d="
M384.658203,174.722260 
	C315.654633,174.973251 246.326279,174.970352 176.538513,174.958282 
	C177.661407,174.634109 179.243500,174.044739 180.826004,174.043655 
	C247.354538,173.997665 313.883087,174.001587 380.411652,174.023605 
	C381.718933,174.024048 383.026184,174.313675 384.658203,174.722260 
z"/>
<path fill="#050605" opacity="1.000000" stroke="none" 
	d="
M176.477386,597.995972 
	C176.009933,597.980225 176.012589,597.482544 176.448608,597.257996 
	C178.908646,596.996338 180.932663,596.959229 183.421997,596.998413 
	C189.273224,597.023926 194.659119,596.973083 200.475510,596.956726 
	C202.920609,596.967224 204.935196,596.943176 207.402985,596.996460 
	C210.917831,597.022827 213.979492,596.971985 217.359589,596.954346 
	C218.103714,596.965149 218.529404,596.942688 219.411652,596.996948 
	C223.259659,597.022034 226.651138,596.970520 230.360611,596.952454 
	C231.103806,596.963745 231.528992,596.941589 232.420227,596.996826 
	C248.605835,597.023132 264.325409,596.972107 280.452728,596.955688 
	C282.223572,596.966736 283.586609,596.943054 285.416077,596.996338 
	C300.936859,597.021484 315.991241,596.969727 331.453461,596.952637 
	C333.224365,596.964905 334.587494,596.942566 336.355713,596.996765 
	C337.855316,597.022827 338.949768,596.972351 340.493073,596.956665 
	C343.945526,596.969238 346.949158,596.947083 350.418671,597.001343 
	C356.938690,597.024536 362.992767,596.971252 369.509338,596.953369 
	C374.972870,596.983704 379.973969,596.978699 384.987762,596.971191 
	C385.000458,596.968628 385.026093,596.963562 385.026093,596.963562 
	C383.123718,597.313904 381.221558,597.969055 379.318909,597.970520 
	C311.860901,598.022278 244.402878,598.012756 176.477386,597.995972 
z"/>
<path fill="#0F1110" opacity="1.000000" stroke="none" 
	d="
M851.244446,824.687500 
	C850.978271,755.983582 850.979614,686.959778 850.980469,617.467041 
	C851.320129,618.738525 851.956055,620.478638 851.957397,622.219299 
	C852.008362,687.963013 852.004456,753.706848 851.980896,819.450623 
	C851.980286,821.089661 851.675049,822.728516 851.244446,824.687500 
z"/>
<path fill="#FADB64" opacity="1.000000" stroke="none" 
	d="
M384.915649,371.501953 
	C350.768829,371.778534 316.609955,371.855408 282.451050,371.879517 
	C247.620285,371.904114 212.789490,371.876862 177.843140,371.587524 
	C178.547272,371.196777 179.366989,370.997986 180.186661,370.998108 
	C248.389771,371.009338 316.592896,371.035950 384.838989,370.950348 
	C384.881989,370.839233 385.115601,370.886292 385.115601,370.886292 
	C385.115601,370.886292 384.903625,371.279083 384.915649,371.501953 
z"/>
<path fill="#0E100E" opacity="1.000000" stroke="none" 
	d="
M621.279480,824.669556 
	C621.023499,755.976868 621.026611,686.961609 621.032715,617.479126 
	C621.358032,618.760498 621.961060,620.508789 621.962341,622.257507 
	C622.010376,688.146362 622.005981,754.035156 621.983704,819.924011 
	C621.983215,821.398376 621.693481,822.872620 621.279480,824.669556 
z"/>
<path fill="#0C0E0C" opacity="1.000000" stroke="none" 
	d="
M384.918823,617.979614 
	C384.918793,617.979614 385.005981,617.530518 385.034485,617.304260 
	C385.374969,618.660950 385.958679,620.243713 385.959808,621.826843 
	C386.005981,688.027893 386.002716,754.228882 385.981293,820.429932 
	C385.980865,821.737549 385.690765,823.045044 385.273712,824.673462 
	C385.011627,824.994263 384.979431,824.506714 384.983398,823.796265 
	C384.999634,807.448975 385.029175,791.812195 385.021179,776.175415 
	C384.994232,723.443481 384.953979,670.711548 384.918823,617.979614 
z"/>
<path fill="#000100" opacity="1.000000" stroke="none" 
	d="
M851.140381,596.726685 
	C850.880554,563.752197 850.943237,530.482605 850.966125,497.212952 
	C850.990234,462.109009 850.976440,427.005066 850.901245,391.429871 
	C851.214233,392.505280 851.945496,394.051636 851.946838,395.598633 
	C852.004395,461.242371 852.000122,526.886108 851.974365,592.529907 
	C851.973816,593.830505 851.629395,595.131042 851.140381,596.726685 
z"/>
<path fill="#000100" opacity="1.000000" stroke="none" 
	d="
M385.173065,392.075165 
	C385.447235,393.673004 385.960205,395.270660 385.961182,396.868683 
	C385.999939,461.881134 385.995453,526.893616 385.972870,591.906128 
	C385.972351,593.382141 385.700470,594.858093 385.290649,596.648804 
	C385.026093,596.963562 385.000458,596.968628 385.005188,596.648682 
	C384.960419,595.901917 384.910919,595.474976 384.941772,594.582397 
	C385.034637,550.689697 385.067810,507.262695 385.051453,463.835663 
	C385.042542,440.211731 384.949493,416.587769 384.939453,392.713898 
	C384.951782,392.297821 384.919006,392.131683 384.936798,392.048340 
	C384.987335,392.131134 385.173065,392.075165 385.173065,392.075165 
z"/>
<path fill="#000100" opacity="1.000000" stroke="none" 
	d="
M621.375000,595.624207 
	C621.078674,559.454712 621.016541,522.962830 621.000244,486.470917 
	C620.986267,455.309570 621.025024,424.148193 621.082397,392.523621 
	C621.418091,393.648163 621.967590,395.235779 621.968689,396.823792 
	C622.015442,461.669952 622.015015,526.516113 622.000183,591.362305 
	C621.999878,592.675476 621.758118,593.988586 621.375000,595.624207 
z"/>
<path fill="#000100" opacity="1.000000" stroke="none" 
	d="
M621.030029,177.069366 
	C621.365723,178.656067 621.959351,180.231049 621.960632,181.806519 
	C622.011902,243.672836 622.012268,305.539154 621.993774,367.405487 
	C621.993408,368.710052 621.693665,370.014526 621.237427,371.601654 
	C620.941345,371.884247 620.913574,371.886017 620.946899,371.505432 
	C620.956116,370.098938 620.931885,369.072968 620.988708,367.581207 
	C621.016968,340.397217 620.964233,313.679077 620.941284,286.731079 
	C620.971069,286.501251 620.910645,286.041718 620.991211,285.576416 
	C621.018005,253.392548 620.964355,221.673996 620.946960,189.638214 
	C620.959473,188.896576 620.935730,188.472183 620.992554,187.596222 
	C621.034363,184.091187 620.995544,181.037735 621.003113,177.744720 
	C621.049500,177.505173 620.989197,177.020935 620.989197,177.020935 
	C620.989197,177.020935 621.011719,177.057877 621.030029,177.069366 
z"/>
<path fill="#303332" opacity="1.000000" stroke="none" 
	d="
M173.737350,177.325104 
	C174.002777,241.689865 174.007935,306.377686 174.024567,371.534668 
	C173.690811,370.431335 173.044952,368.859131 173.043655,367.286407 
	C172.992599,305.380585 172.997208,243.474716 173.019974,181.568848 
	C173.020447,180.261917 173.318069,178.955078 173.737350,177.325104 
z"/>
<path fill="#000100" opacity="1.000000" stroke="none" 
	d="
M384.943726,177.065262 
	C385.110962,177.060150 385.278229,177.055023 385.695923,177.043777 
	C385.963287,240.462723 385.981903,303.887817 385.981659,367.312897 
	C385.981659,368.295532 385.749725,369.278137 385.370819,370.573547 
	C385.115601,370.886292 384.881989,370.839233 384.939148,370.487061 
	C384.978760,305.778351 384.961243,241.421799 384.943726,177.065262 
z"/>
<path fill="#000100" opacity="1.000000" stroke="none" 
	d="
M851.300903,370.659668 
	C850.990173,320.923309 850.941040,270.872253 850.907898,220.821182 
	C850.898438,206.520630 850.935181,192.220032 850.927734,177.446716 
	C851.266907,178.534332 851.944336,180.094421 851.945679,181.655106 
	C851.999756,243.406601 851.994751,305.158142 851.975342,366.909668 
	C851.974976,368.054810 851.710022,369.199890 851.300903,370.659668 
z"/>
<path fill="#000100" opacity="1.000000" stroke="none" 
	d="
M157.986572,838.734131 
	C157.700928,838.547791 157.385178,838.058472 157.023270,837.271301 
	C157.303558,837.459351 157.630005,837.945312 157.986572,838.734131 
z"/>
<path fill="#579A55" opacity="1.000000" stroke="none" 
	d="
M383.968567,391.189056 
	C384.133728,391.139740 384.298859,391.090424 384.718201,391.087402 
	C384.972443,391.133636 385.013306,391.617065 385.093201,391.846130 
	C385.173065,392.075165 384.987335,392.131134 384.759369,391.949097 
	C384.297211,391.619751 384.109619,391.427094 383.968567,391.189056 
z"/>
<path fill="#FADB64" opacity="1.000000" stroke="none" 
	d="
M729.000000,393.007812 
	C747.991882,393.007202 766.484619,392.896057 784.975281,393.046234 
	C796.651672,393.141083 808.323975,393.805756 820.000061,393.873779 
	C827.900940,393.919800 835.807007,393.414703 843.706848,393.065887 
	C846.127869,392.958954 848.010376,393.143890 848.158691,396.241516 
	C848.269287,398.550385 848.954712,400.843628 848.956360,403.144135 
	C849.002136,465.116791 848.936279,527.089600 849.098938,589.061890 
	C849.112000,594.040894 847.472595,595.106567 842.812439,595.096680 
	C778.007996,594.958618 713.202942,594.948730 648.398560,595.109619 
	C643.410706,595.121948 641.902466,593.892395 641.916931,588.740295 
	C642.095093,525.435364 642.033813,462.129730 642.034424,398.824280 
	C642.034424,397.343170 642.034424,395.862061 642.034424,393.007874 
	C671.075134,393.007874 699.787537,393.007874 729.000000,393.007812 
z"/>
<path fill="#579A55" opacity="1.000000" stroke="none" 
	d="
M406.045807,475.000000 
	C406.045502,449.169861 406.148865,423.838928 405.947357,398.510376 
	C405.912079,394.074585 407.232819,392.871979 411.601593,392.880280 
	C478.926178,393.008301 546.251038,392.985718 613.575867,392.944794 
	C616.934753,392.942749 619.170715,393.115112 619.161926,397.618378 
	C619.034668,462.609924 619.071350,527.601807 619.059570,592.593567 
	C619.059448,593.249390 618.936646,593.905212 618.820251,595.070923 
	C616.218811,595.070923 613.631958,595.070801 611.045105,595.070862 
	C545.053467,595.071777 479.061798,595.072876 413.070129,595.073730 
	C406.063019,595.073853 406.055084,595.073608 406.054138,587.985840 
	C406.049011,550.490540 406.048218,512.995300 406.045807,475.000000 
z"/>
<path fill="#3E4646" opacity="1.000000" stroke="none" 
	d="
M573.000000,618.002441 
	C586.831787,618.003357 600.167175,618.180664 613.493347,617.906799 
	C617.995361,617.814331 619.091187,619.336731 619.083313,623.642151 
	C618.964417,688.634399 618.972290,753.627014 619.077576,818.619324 
	C619.084167,822.687500 617.957764,824.083557 613.740173,824.076477 
	C546.248169,823.963562 478.755798,823.962952 411.263763,824.075745 
	C407.035767,824.082825 405.933075,822.669800 405.939575,818.611511 
	C406.044006,753.619202 406.068817,688.626526 405.904968,623.634460 
	C405.892578,618.719116 407.716003,617.917419 412.018799,617.926636 
	C465.512329,618.041077 519.006226,618.002014 573.000000,618.002441 
z"/>
<path fill="#3E4546" opacity="1.000000" stroke="none" 
	d="
M849.001343,812.972229 
	C849.001038,823.999939 849.001038,823.997925 838.395447,823.997925 
	C775.234192,823.997864 712.072937,823.999756 648.911682,823.997986 
	C642.018616,823.997803 642.009155,823.988770 642.008850,817.265320 
	C642.005798,753.104126 642.005005,688.942993 642.007385,624.781799 
	C642.007629,618.012024 642.018860,618.003967 648.867676,618.003784 
	C713.362183,618.001648 777.856628,618.001404 842.351135,618.004028 
	C848.983643,618.004272 848.995361,618.014343 848.995789,624.493103 
	C849.000061,687.154419 849.000000,749.815735 849.001343,812.972229 
z"/>
<path fill="#579A55" opacity="1.000000" stroke="none" 
	d="
M849.032227,305.000000 
	C849.030884,325.156433 848.902161,344.814301 849.125061,364.468201 
	C849.175354,368.903564 847.833130,370.092010 843.460938,370.083588 
	C778.161804,369.957794 712.862366,369.959656 647.563232,370.095886 
	C643.148560,370.105103 641.938049,368.845459 641.947693,364.456177 
	C642.079895,304.154541 642.077148,243.852371 641.936096,183.550735 
	C641.925720,179.134842 643.179932,177.929764 647.570740,177.938797 
	C712.869873,178.073196 778.169312,178.074829 843.468445,177.943375 
	C847.864624,177.934525 849.128540,179.153824 849.111755,183.563492 
	C848.958435,223.875183 849.027832,264.187714 849.032227,305.000000 
z"/>
<path fill="#3E4646" opacity="1.000000" stroke="none" 
	d="
M384.457062,617.990479 
	C384.953979,670.711548 384.994232,723.443481 385.021179,776.175415 
	C385.029175,791.812195 384.999634,807.448975 384.944641,823.555054 
	C317.945923,824.015625 250.989883,824.007324 184.033844,823.997742 
	C177.020050,823.996704 177.014313,823.993286 177.014221,816.892029 
	C177.013474,752.933960 177.014252,688.975891 177.016556,625.017822 
	C177.016815,618.006409 177.022614,618.003113 184.126312,618.002930 
	C250.749313,618.001709 317.372314,618.001648 384.457062,617.990479 
z"/>
<path fill="#212626" opacity="1.000000" stroke="none" 
	d="
M177.034164,616.204712 
	C177.107422,616.070679 177.311584,616.062012 177.821793,616.082397 
	C177.806915,616.184326 177.486008,616.257202 177.034164,616.204712 
z"/>
<path fill="#71CA6A" opacity="1.000000" stroke="none" 
	d="
M620.522583,176.979523 
	C620.989197,177.020935 621.049500,177.505173 620.539429,177.795013 
	C550.383545,178.065689 480.737793,178.062485 411.092133,177.978729 
	C407.714478,177.974655 405.963562,178.494644 405.971191,182.552200 
	C406.085968,243.533798 406.078064,304.515686 405.993378,365.497375 
	C405.988464,369.036713 407.194031,370.051941 410.620422,370.048248 
	C478.933289,369.974182 547.246277,370.008179 615.559082,369.912292 
	C617.342834,369.909790 619.124878,368.695984 620.907715,368.047058 
	C620.931885,369.072968 620.956116,370.098938 620.933105,371.507507 
	C549.177002,371.893097 477.468048,371.896088 405.407776,371.913208 
	C405.015625,331.199280 404.972443,290.471222 404.934784,249.743149 
	C404.912659,225.802673 404.899200,201.862183 404.934967,177.454727 
	C476.677429,176.971207 548.366760,176.954651 620.522583,176.979523 
z"/>
<path fill="#F7EF79" opacity="1.000000" stroke="none" 
	d="
M384.478638,177.025864 
	C384.961243,241.421799 384.978760,305.778351 384.896118,370.598175 
	C316.592896,371.035950 248.389771,371.009338 180.186661,370.998108 
	C179.366989,370.997986 178.547272,371.196777 177.381027,371.520325 
	C176.876816,371.802032 176.719162,371.866119 176.307251,371.909058 
	C176.018906,310.247681 175.985275,248.607468 175.949341,186.967239 
	C175.947601,183.968689 175.925659,180.970154 175.928253,177.508377 
	C245.300095,177.025589 314.656830,177.006027 384.478638,177.025864 
M177.036469,338.500000 
	C177.036255,346.998505 177.312561,355.509491 176.929947,363.990753 
	C176.707840,368.914185 178.406158,370.100983 183.150436,370.089996 
	C247.639893,369.940826 312.129913,369.931915 376.619324,370.087158 
	C381.574799,370.099091 383.136658,368.929138 383.120483,363.743103 
	C382.934021,303.919800 382.932434,244.095535 383.115570,184.272232 
	C383.131439,179.091461 381.583344,177.914368 376.620361,177.926758 
	C312.297607,178.087250 247.974319,178.032593 183.651154,178.036026 
	C177.046921,178.036377 177.037155,178.047714 177.036911,184.524200 
	C177.035019,235.516129 177.037170,286.508057 177.036469,338.500000 
z"/>
<path fill="#71CA6A" opacity="1.000000" stroke="none" 
	d="
M383.503723,391.146606 
	C384.109619,391.427094 384.297211,391.619751 384.708832,391.866333 
	C384.919006,392.131683 384.951782,392.297821 384.478577,392.744263 
	C316.813019,393.008148 249.653275,393.035370 182.493973,392.878296 
	C177.958984,392.867706 176.942398,394.334686 176.950546,398.606384 
	C177.072464,462.599548 177.034164,526.593018 177.050751,590.586365 
	C177.051178,592.196777 177.246902,593.807190 177.334305,595.152405 
	C179.559753,595.852844 181.258224,596.387451 182.956680,596.922058 
	C180.932663,596.959229 178.908646,596.996338 176.451904,597.009155 
	C175.998337,528.659973 175.977478,460.335052 175.997864,391.548157 
	C245.039047,391.092224 314.038971,391.098206 383.503723,391.146606 
z"/>
<path fill="#579A55" opacity="1.000000" stroke="none" 
	d="
M183.421997,596.998413 
	C181.258224,596.387451 179.559753,595.852844 177.334305,595.152405 
	C177.246902,593.807190 177.051178,592.196777 177.050751,590.586365 
	C177.034164,526.593018 177.072464,462.599548 176.950546,398.606384 
	C176.942398,394.334686 177.958984,392.867706 182.493973,392.878296 
	C249.653275,393.035370 316.813019,393.008148 384.433533,392.994202 
	C384.949493,416.587769 385.042542,440.211731 385.051453,463.835663 
	C385.067810,507.262695 385.034637,550.689697 384.539062,594.637390 
	C382.271149,595.420471 380.491913,595.732544 378.700256,595.934631 
	C375.486389,596.297241 372.265076,596.593811 369.046875,596.917969 
	C362.992767,596.971252 356.938690,597.024536 350.128174,596.730713 
	C346.262604,596.563110 343.153412,596.742554 340.044220,596.921875 
	C338.949768,596.972351 337.855316,597.022827 336.122070,596.745300 
	C334.004059,596.584229 332.524872,596.751160 331.045654,596.917969 
	C315.991241,596.969727 300.936859,597.021484 285.181641,596.745605 
	C283.002197,596.585571 281.523560,596.753296 280.044952,596.921021 
	C264.325409,596.972107 248.605835,597.023132 232.284424,596.785278 
	C231.135910,596.637207 230.589249,596.778137 230.042603,596.919006 
	C226.651138,596.970520 223.259659,597.022034 219.275879,596.784546 
	C218.136108,596.637390 217.588638,596.779297 217.041153,596.921143 
	C213.979492,596.971985 210.917831,597.022827 207.136475,596.737549 
	C204.292862,596.575012 202.168945,596.748596 200.045013,596.922241 
	C194.659119,596.973083 189.273224,597.023926 183.421997,596.998413 
z"/>
<path fill="#71CA6A" opacity="1.000000" stroke="none" 
	d="
M369.509338,596.953369 
	C372.265076,596.593811 375.486389,596.297241 378.700256,595.934631 
	C380.491913,595.732544 382.271149,595.420471 384.458710,595.103027 
	C384.910919,595.474976 384.960419,595.901917 384.992493,596.651245 
	C379.973969,596.978699 374.972870,596.983704 369.509338,596.953369 
z"/>
<path fill="#71CA6A" opacity="1.000000" stroke="none" 
	d="
M340.493073,596.956665 
	C343.153412,596.742554 346.262604,596.563110 349.662292,596.654297 
	C346.949158,596.947083 343.945526,596.969238 340.493073,596.956665 
z"/>
<path fill="#71CA6A" opacity="1.000000" stroke="none" 
	d="
M280.452728,596.955688 
	C281.523560,596.753296 283.002197,596.585571 284.715240,596.668640 
	C283.586609,596.943054 282.223572,596.966736 280.452728,596.955688 
z"/>
<path fill="#71CA6A" opacity="1.000000" stroke="none" 
	d="
M331.453461,596.952637 
	C332.524872,596.751160 334.004059,596.584229 335.716919,596.668823 
	C334.587494,596.942566 333.224365,596.964905 331.453461,596.952637 
z"/>
<path fill="#71CA6A" opacity="1.000000" stroke="none" 
	d="
M230.360611,596.952454 
	C230.589249,596.778137 231.135910,596.637207 231.818359,596.707886 
	C231.528992,596.941589 231.103806,596.963745 230.360611,596.952454 
z"/>
<path fill="#71CA6A" opacity="1.000000" stroke="none" 
	d="
M217.359589,596.954346 
	C217.588638,596.779297 218.136108,596.637390 218.819336,596.707886 
	C218.529404,596.942688 218.103714,596.965149 217.359589,596.954346 
z"/>
<path fill="#579A55" opacity="1.000000" stroke="none" 
	d="
M620.988708,367.581238 
	C619.124878,368.695984 617.342834,369.909790 615.559082,369.912292 
	C547.246277,370.008179 478.933289,369.974182 410.620422,370.048248 
	C407.194031,370.051941 405.988464,369.036713 405.993378,365.497375 
	C406.078064,304.515686 406.085968,243.533798 405.971191,182.552200 
	C405.963562,178.494644 407.714478,177.974655 411.092133,177.978729 
	C480.737793,178.062485 550.383545,178.065689 620.493042,178.034576 
	C620.995544,181.037735 621.034363,184.091187 620.788086,187.735580 
	C620.638916,188.869492 620.774780,189.412476 620.910706,189.955460 
	C620.964355,221.673996 621.018005,253.392548 620.853394,285.664459 
	C620.440491,286.538910 620.532593,286.786591 620.911499,286.960907 
	C620.964233,313.679077 621.016968,340.397217 620.988708,367.581238 
z"/>
<path fill="#71CA6A" opacity="1.000000" stroke="none" 
	d="
M620.946960,189.638214 
	C620.774780,189.412476 620.638916,188.869492 620.707520,188.187149 
	C620.935730,188.472183 620.959473,188.896576 620.946960,189.638214 
z"/>
<path fill="#71CA6A" opacity="1.000000" stroke="none" 
	d="
M620.941284,286.731079 
	C620.532593,286.786591 620.440491,286.538910 620.772827,286.129761 
	C620.910645,286.041718 620.971069,286.501251 620.941284,286.731079 
z"/>
<path fill="#FADB64" opacity="1.000000" stroke="none" 
	d="
M177.037277,338.000000 
	C177.037170,286.508057 177.035019,235.516129 177.036911,184.524200 
	C177.037155,178.047714 177.046921,178.036377 183.651154,178.036026 
	C247.974319,178.032593 312.297607,178.087250 376.620361,177.926758 
	C381.583344,177.914368 383.131439,179.091461 383.115570,184.272232 
	C382.932434,244.095535 382.934021,303.919800 383.120483,363.743103 
	C383.136658,368.929138 381.574799,370.099091 376.619324,370.087158 
	C312.129913,369.931915 247.639893,369.940826 183.150436,370.089996 
	C178.406158,370.100983 176.707840,368.914185 176.929947,363.990753 
	C177.312561,355.509491 177.036255,346.998505 177.037277,338.000000 
z"/>
</svg>